<?xml version="1.0" encoding="UTF-8"?>
<svg version="1.1" xmlns="http://www.w3.org/2000/svg" width="512" height="412">
<path d="M0 0 C5.71882074 4.67154698 10.22130157 10.22409527 11.18188477 17.78051758 C11.47906709 25.68739157 9.36220847 32.43058136 6.74295044 39.79022217 C5.64317789 42.88143066 4.5815213 45.98539591 3.5165863 49.08874512 C2.92955292 50.79845213 2.34060275 52.50750202 1.74989319 54.21594238 C-1.7829832 64.45566415 -5.10682872 74.76293637 -8.4486084 85.06622314 C-14.01739624 102.22298959 -19.68517016 119.33892907 -25.57492065 136.38812256 C-30.20690184 149.80513184 -34.62203747 163.28624412 -38.98764038 176.79202271 C-43.07253711 189.42118174 -47.27000845 202.00414842 -51.6015625 214.55078125 C-56.22498994 227.94328072 -60.68183865 241.38186416 -65.0390625 254.86328125 C-69.83474873 269.69716286 -74.74479933 284.48698086 -79.7890625 299.23828125 C-80.0874704 300.11199371 -80.3858783 300.98570618 -80.69332886 301.88589478 C-81.53980761 304.36206488 -82.38844355 306.8374809 -83.23828125 309.3125 C-83.48455261 310.03142426 -83.73082397 310.75034851 -83.98455811 311.49105835 C-89.00210329 326.05069617 -89.00210329 326.05069617 -92.6015625 329.86328125 C-93.189375 330.49878906 -93.7771875 331.13429688 -94.3828125 331.7890625 C-95.23359375 332.66111328 -95.23359375 332.66111328 -96.1015625 333.55078125 C-96.60816406 334.08703125 -97.11476562 334.62328125 -97.63671875 335.17578125 C-102.56373507 339.80060724 -108.65822873 340.15020698 -115.10546875 339.95703125 C-122.63274427 338.93638372 -127.99723536 334.50761851 -132.65625 328.7109375 C-137.49462523 321.47952803 -137.38504335 314.92579321 -136.1015625 306.55078125 C-135.25939316 303.02887636 -134.15960279 299.62683714 -132.99609375 296.19921875 C-132.52279381 294.75890289 -132.52279381 294.75890289 -132.03993225 293.28948975 C-131.00949224 290.16430386 -129.96208686 287.04510955 -128.9140625 283.92578125 C-128.18485443 281.72668314 -127.4565134 279.52729734 -126.72900391 277.32763672 C-121.67137999 262.07583097 -116.48449867 246.86780906 -111.25537109 231.67407227 C-106.74250276 218.54244787 -102.42855402 205.35131965 -98.15863037 192.13897705 C-93.84027269 178.78518475 -89.37780718 165.48941329 -84.79803467 152.22320557 C-80.13552759 138.70550825 -75.68258344 125.12635666 -71.28570557 111.52020264 C-66.70070558 97.34239315 -61.95719036 83.22603428 -57.10214233 69.1385498 C-53.88406046 59.79769282 -50.71616469 50.44581671 -47.6953125 41.0390625 C-47.28480148 39.76189362 -47.28480148 39.76189362 -46.86599731 38.45892334 C-45.56919067 34.41680369 -44.2818433 30.37195453 -43.00732422 26.32275391 C-39.28057649 14.56810459 -35.91640581 4.49486579 -25.0390625 -2.38671875 C-16.92426465 -5.29925342 -7.1972716 -4.74912903 0 0 Z " fill="#FE6C00" transform="translate(320.1015625,39.44921875)"/>
<path d="M0 0 C5.76306322 3.04635294 10.03970115 6.88311055 13.98046875 12.046875 C14.80546875 12.706875 15.63046875 13.366875 16.48046875 14.046875 C18.98046875 16.046875 18.98046875 16.046875 20.91796875 18.484375 C23.31450424 21.46188879 26.02305292 23.63265799 28.98046875 26.046875 C31.98879475 28.90092787 34.72556286 31.89983039 37.41796875 35.046875 C40.37834375 38.46960791 43.45933397 41.21465789 46.98046875 44.046875 C50.15768858 47.05687273 53.04349894 50.25241625 55.91796875 53.546875 C59.06581282 57.12074308 62.26929288 60.0779343 65.98046875 63.046875 C68.98879475 65.90092787 71.72556286 68.89983039 74.41796875 72.046875 C77.37834375 75.46960791 80.45933397 78.21465789 83.98046875 81.046875 C86.96798737 83.88118754 89.68530477 86.85629871 92.35546875 89.984375 C94.5876814 92.5741282 96.82147033 94.83809825 99.48046875 96.984375 C105.74738251 102.16200578 111.40410543 108.8126918 112.31640625 117.09765625 C112.32929688 118.17402344 112.3421875 119.25039062 112.35546875 120.359375 C112.38382813 121.42800781 112.4121875 122.49664062 112.44140625 123.59765625 C111.16121734 133.17737497 104.62470091 138.96869763 98.05883789 145.4543457 C97.04089878 146.47443397 96.02382697 147.49538833 95.0075531 148.51713562 C92.26042268 151.27391073 89.5010376 154.01810383 86.73892522 156.75985742 C83.84387547 159.63726541 80.95944969 162.52528835 78.07359314 165.41191101 C73.2291148 170.25452006 68.37697567 175.08934252 63.51977539 179.91918945 C57.90880585 185.49867672 52.30838995 191.08858016 46.71387392 196.68456203 C40.74771059 202.65207727 34.77395586 208.61194832 28.79794383 214.56959891 C27.07999072 216.28329515 25.36345798 217.99840322 23.64723396 219.71383095 C20.94904091 222.41001156 18.24579217 225.10102158 15.53858376 227.78814888 C14.54723772 228.7736659 13.55756159 229.76086606 12.56970596 230.74988174 C11.21878266 232.10179075 9.8610776 233.4469127 8.50306702 234.79170227 C7.74593949 235.54547811 6.98881197 236.29925394 6.20874119 237.07587147 C0.83960769 241.82510272 -3.05585662 242.54634473 -9.95703125 242.484375 C-10.74271484 242.50435547 -11.52839844 242.52433594 -12.33789062 242.54492188 C-17.73334794 242.54040685 -20.72068777 241.55780728 -25.01953125 238.046875 C-26.01533203 237.23476563 -26.01533203 237.23476563 -27.03125 236.40625 C-32.75339205 230.9108595 -35.0933728 225.93495817 -35.39453125 217.984375 C-34.93187479 205.84426957 -25.41480879 197.12943773 -17.24829102 189.04858398 C-16.13485069 187.93470558 -16.13485069 187.93470558 -14.99891663 186.79832458 C-12.57430664 184.37509421 -10.14271772 181.95900163 -7.7109375 179.54296875 C-6.01656555 177.85233179 -4.32263821 176.16124913 -2.62913513 174.46974182 C1.8067676 170.0414372 6.24864566 165.61917454 10.6918335 161.19818115 C15.23375637 156.67679939 19.76994926 152.14967676 24.30664062 147.62304688 C33.19234595 138.75872395 42.08418673 129.90058242 50.98046875 121.046875 C50.03915244 119.7561906 49.09287819 118.46912115 48.14453125 117.18359375 C47.61811035 116.46647217 47.09168945 115.74935059 46.54931641 115.01049805 C44.63108986 112.60958051 42.41666358 110.90607632 39.98046875 109.046875 C38.64713542 107.38020833 37.31380208 105.71354167 35.98046875 104.046875 C35.15546875 103.386875 34.33046875 102.726875 33.48046875 102.046875 C30.85147332 99.94367865 29.0772724 97.66787957 26.98046875 95.046875 C25.77390625 94.0878125 25.77390625 94.0878125 24.54296875 93.109375 C21.56545496 90.71283951 19.39468576 88.00429083 16.98046875 85.046875 C14.14615621 82.05935638 11.17104504 79.34203898 8.04296875 76.671875 C4.81624549 73.88185112 2.05404366 70.94327905 -0.6640625 67.6640625 C-3.76766721 63.9612027 -7.29325268 60.80033868 -10.95703125 57.671875 C-14.18411616 54.88153842 -16.9493584 51.94663429 -19.66015625 48.66015625 C-21.14111054 46.85614867 -21.14111054 46.85614867 -23.45703125 44.609375 C-30.38109552 37.68531073 -34.93482679 32.79930364 -35.39453125 22.671875 C-35.22994897 14.58539894 -31.69655483 8.72389858 -26.01953125 3.046875 C-17.70138291 -2.05818467 -9.22383291 -3.90309896 0 0 Z " fill="#FD6B00" transform="translate(388.01953125,87.953125)"/>
<path d="M0 0 C7.45038823 4.16242347 11.98608544 9.70825631 14.6875 17.8125 C15.69692488 25.67159367 13.81624975 31.16791686 9.6875 37.8125 C7.19666839 40.92461607 4.44308547 43.69297599 1.5925293 46.47509766 C0.39174492 47.67697723 0.39174492 47.67697723 -0.83329773 48.90313721 C-3.45660546 51.52298863 -6.0971161 54.12472554 -8.73828125 56.7265625 C-10.57068724 58.54963355 -12.40198535 60.37381877 -14.23222351 62.19906616 C-18.54363707 66.49340303 -22.86598786 70.77643191 -27.193968 75.0540632 C-32.12534851 79.9293279 -37.04233917 84.81899878 -41.95824301 89.70986104 C-52.06052698 99.76004781 -62.18052884 109.79224708 -72.3125 119.8125 C-71.38891216 120.91959215 -70.4609565 122.02304113 -69.53125 123.125 C-69.01498047 123.73988281 -68.49871094 124.35476562 -67.96679688 124.98828125 C-66.35104053 126.77000076 -64.67035123 128.28888708 -62.8125 129.8125 C-59.74402074 132.34703684 -57.24321173 135.10536773 -54.703125 138.16015625 C-51.58088554 141.8700082 -48.05237558 145.04742598 -44.375 148.1875 C-41.14969844 150.97629458 -38.38807553 153.91298142 -35.671875 157.19140625 C-32.71551021 160.71695621 -29.4035962 163.75474132 -25.875 166.6875 C-22.80841136 169.27514204 -20.26415988 172.08017482 -17.703125 175.16015625 C-14.58088554 178.8700082 -11.05237558 182.04742598 -7.375 185.1875 C-4.15076643 187.97537114 -1.38663315 190.90649112 1.3203125 194.19140625 C2.55379332 195.65396208 3.89712445 197.02212445 5.25 198.375 C11.27271985 204.39771985 14.65000679 209.01586742 15.0625 217.625 C14.82243882 226.52060035 10.94288134 232.13591062 4.6875 238.18359375 C-0.06871878 242.057311 -4.08873756 242.2344116 -10.0625 242.3125 C-10.8359375 242.35375 -11.609375 242.395 -12.40625 242.4375 C-21.17599312 242.55521467 -26.04685147 237.13141765 -32.08197021 231.31045532 C-33.86926369 229.54099194 -35.6511962 227.76610278 -37.42871094 225.98681641 C-38.41806918 225.00345481 -39.407832 224.02050012 -40.39796448 223.03791809 C-43.06573689 220.38768885 -45.72710897 217.73112377 -48.38676357 215.07275057 C-50.05210943 213.40883256 -51.718874 211.74634933 -53.38614655 210.08436203 C-59.21186278 204.27710142 -65.03243833 198.46474574 -70.84814453 192.64746094 C-76.25589381 187.23850875 -81.67471666 181.84082918 -87.09881568 176.44827712 C-91.76943795 171.80384749 -96.43227452 167.15169712 -101.08918023 162.49351442 C-103.86461357 159.7175727 -106.64302031 156.94478187 -109.42931366 154.17973709 C-112.04844455 151.58004115 -114.65770293 148.97081875 -117.25987053 146.35414696 C-118.66460556 144.94634194 -120.07918441 143.54838049 -121.49409485 142.15080261 C-127.06459793 136.52491597 -131.56222561 131.53481526 -132.84375 123.46875 C-132.6988155 108.83036547 -125.72025821 102.36683485 -115.74609375 92.1953125 C-113.6624679 90.1551652 -111.54291844 88.25017035 -109.3125 86.375 C-105.88976709 83.414625 -103.14471711 80.33363478 -100.3125 76.8125 C-97.47818746 73.82498138 -94.50307629 71.10766398 -91.375 68.4375 C-88.14827674 65.64747612 -85.38607491 62.70890405 -82.66796875 59.4296875 C-79.54589583 55.70479359 -75.99469556 52.52624227 -72.3125 49.375 C-68.88976709 46.414625 -66.14471711 43.33363478 -63.3125 39.8125 C-60.45844713 36.804174 -57.45954461 34.06740589 -54.3125 31.375 C-50.88976709 28.414625 -48.14471711 25.33363478 -45.3125 21.8125 C-42.30250227 18.63528017 -39.10695875 15.74946981 -35.8125 12.875 C-33.17936621 10.57155017 -30.84235589 8.36412907 -28.75 5.5625 C-21.51572073 -2.59925097 -9.7281264 -4.64561725 0 0 Z " fill="#FE6C00" transform="translate(144.3125,88.1875)"/>
</svg>
